<svg id="Layer_1" data-name="Layer 1" xmlns="http://www.w3.org/2000/svg" viewBox="0 0 761.8 131.87"><defs><style>.cls-1{fill:#2a308e;}</style></defs><path class="cls-1" d="M111.71,12.73v109.9H86.28V77.57H36.35v45.06H10.92V12.73H36.35V56.06H86.28V12.73Z"/><path class="cls-1" d="M200.26,46.25q10.52,9.34,10.52,28.18v48.2H187.86V112.11q-6.92,11.77-25.75,11.77a40.09,40.09,0,0,1-16.88-3.29,25.2,25.2,0,0,1-10.91-9.11,23.72,23.72,0,0,1-3.77-13.19q0-11.78,8.87-18.52T166.82,73h19.47q0-8-4.87-12.33t-14.6-4.32a42.73,42.73,0,0,0-13.27,2.12,35.5,35.5,0,0,0-11.07,5.73l-8.79-17.11a53.51,53.51,0,0,1,16.56-7.54,74.6,74.6,0,0,1,19.86-2.66Q189.74,36.91,200.26,46.25Zm-20.88,58.24a15.91,15.91,0,0,0,6.91-8.55V87.3h-16.8q-15.08,0-15.08,9.89a8.81,8.81,0,0,0,3.69,7.46q3.69,2.75,10.13,2.75A21.31,21.31,0,0,0,179.38,104.49Z"/><path class="cls-1" d="M240.76,121.29q-10-2.58-16-6.51l8.16-17.59a51.38,51.38,0,0,0,13.66,5.89,57.17,57.17,0,0,0,15.7,2.28q15.54,0,15.55-7.7c0-2.4-1.42-4.13-4.24-5.18a63.76,63.76,0,0,0-13-2.67,125,125,0,0,1-17.11-3.61A26.43,26.43,0,0,1,231.74,79q-5-5.17-5-14.76A23.09,23.09,0,0,1,231.42,50q4.64-6.21,13.5-9.66a57.75,57.75,0,0,1,21-3.45,82.1,82.1,0,0,1,17.82,2,50,50,0,0,1,14.68,5.41l-8.16,17.43a48.83,48.83,0,0,0-24.34-6.28q-7.85,0-11.77,2.2t-3.93,5.65c0,2.62,1.42,4.45,4.24,5.5a75.68,75.68,0,0,0,13.5,3,144.09,144.09,0,0,1,17,3.69,25.47,25.47,0,0,1,11.46,7.14q4.86,5.19,4.87,14.45a22.3,22.3,0,0,1-4.71,14q-4.71,6.12-13.74,9.5t-21.43,3.37A82,82,0,0,1,240.76,121.29Z"/><path class="cls-1" d="M393,46.33q9.66,9.42,9.66,27.94v48.36H378.14V78q0-10-4.4-15T361,58.1q-9.25,0-14.75,5.73t-5.5,17v41.77H316.28V6.13h24.49V47a32.47,32.47,0,0,1,11.78-7.45,42.47,42.47,0,0,1,15.07-2.59Q383.31,36.91,393,46.33Z"/><path class="cls-1" d="M442.27,118.31a41.72,41.72,0,0,1-16.8-15.46,42.21,42.21,0,0,1-6-22.46,41.39,41.39,0,0,1,22.84-37.91,52,52,0,0,1,24.26-5.57q13.34,0,23.31,5.57a33,33,0,0,1,14.52,15.93l-19,10.21Q478.77,57,466.37,57a21.52,21.52,0,0,0-15.86,6.28q-6.28,6.28-6.28,17.11t6.28,17.12a21.52,21.52,0,0,0,15.86,6.28q12.56,0,19-11.62l19,10.36a33.67,33.67,0,0,1-14.52,15.7q-10,5.65-23.31,5.65A51.87,51.87,0,0,1,442.27,118.31Z"/><path class="cls-1" d="M582.7,46.25q10.51,9.34,10.52,28.18v48.2H570.3V112.11q-6.91,11.77-25.75,11.77a40,40,0,0,1-16.87-3.29,25.23,25.23,0,0,1-10.92-9.11A23.71,23.71,0,0,1,513,98.29q0-11.78,8.87-18.52T549.26,73h19.47q0-8-4.87-12.33t-14.6-4.32A42.67,42.67,0,0,0,536,58.49a35.28,35.28,0,0,0-11.07,5.73l-8.79-17.11a53.29,53.29,0,0,1,16.56-7.54,74.54,74.54,0,0,1,19.86-2.66Q572.18,36.91,582.7,46.25Zm-20.88,58.24a15.83,15.83,0,0,0,6.91-8.55V87.3h-16.8q-15.07,0-15.07,9.89a8.81,8.81,0,0,0,3.69,7.46q3.69,2.75,10.13,2.75A21.28,21.28,0,0,0,561.82,104.49Z"/><path class="cls-1" d="M623.21,121.29q-10.05-2.58-16-6.51l8.17-17.59A51.38,51.38,0,0,0,629,103.08a57.17,57.17,0,0,0,15.7,2.28q15.54,0,15.54-7.7,0-3.6-4.24-5.18a63.64,63.64,0,0,0-13-2.67,124.68,124.68,0,0,1-17.11-3.61A26.52,26.52,0,0,1,614.18,79q-4.95-5.17-4.94-14.76A23.09,23.09,0,0,1,613.87,50q4.62-6.21,13.5-9.66a57.71,57.71,0,0,1,21-3.45,82.24,82.24,0,0,1,17.82,2,50.06,50.06,0,0,1,14.68,5.41l-8.17,17.43a48.79,48.79,0,0,0-24.33-6.28q-7.86,0-11.78,2.2t-3.92,5.65q0,3.93,4.24,5.5a75.26,75.26,0,0,0,13.5,3,144.09,144.09,0,0,1,17,3.69,25.57,25.57,0,0,1,11.46,7.14q4.86,5.19,4.86,14.45a22.3,22.3,0,0,1-4.71,14q-4.71,6.12-13.73,9.5t-21.43,3.37A81.9,81.9,0,0,1,623.21,121.29Z"/><path class="cls-1" d="M753.2,118.55a25.15,25.15,0,0,1-8.87,4,44.88,44.88,0,0,1-11.07,1.33q-15.06,0-23.31-7.69t-8.24-22.61V58.89h-13V40.05h13V19.48H726.2V40.05h21V58.89h-21V93.27c0,3.56.91,6.3,2.75,8.24s4.42,2.91,7.77,2.91a15.71,15.71,0,0,0,9.89-3.15Z"/></svg>